<svg xmlns="http://www.w3.org/2000/svg" viewBox="0 0 30 30" width="100px" height="100px" fill="#0d151d">
	<path d="M 14.984375 1.9863281 A 1.0001 1.0001 0 0 0 14 3 L 14 4.0507812 C 11.713525 4.2570961 9.6300334 5.1588913 7.9628906 6.5488281 L 7.2226562 5.8085938 A 1.0001 1.0001 0 0 0 6.5039062 5.5058594 A 1.0001 1.0001 0 0 0 5.8085938 7.2226562 L 6.5488281 7.9628906 C 5.1588913 9.6300334 4.2570961 11.713525 4.0507812 14 L 3 14 A 1.0001 1.0001 0 1 0 3 16 L 4.0507812 16 C 4.2570961 18.286475 5.1588913 20.369967 6.5488281 22.037109 L 5.8085938 22.777344 A 1.0001 1.0001 0 1 0 7.2226562 24.191406 L 7.9628906 23.451172 C 9.6300334 24.841109 11.713525 25.742904 14 25.949219 L 14 27 A 1.0001 1.0001 0 1 0 16 27 L 16 25.949219 C 18.286475 25.742904 20.369967 24.841109 22.037109 23.451172 L 22.777344 24.191406 A 1.0001 1.0001 0 1 0 24.191406 22.777344 L 23.451172 22.037109 C 24.841109 20.369967 25.742904 18.286475 25.949219 16 L 27 16 A 1.0001 1.0001 0 1 0 27 14 L 25.949219 14 C 25.742904 11.713525 24.841109 9.6300334 23.451172 7.9628906 L 24.191406 7.2226562 A 1.0001 1.0001 0 0 0 23.464844 5.5058594 A 1.0001 1.0001 0 0 0 22.777344 5.8085938 L 22.037109 6.5488281 C 20.369967 5.1588913 18.286475 4.2570961 16 4.0507812 L 16 3 A 1.0001 1.0001 0 0 0 14.984375 1.9863281 z M 12 10 C 13.105 10 14 10.895 14 12 C 14 13.105 13.105 14 12 14 C 10.895 14 10 13.105 10 12 C 10 10.895 10.895 10 12 10 z"/>
</svg>
